<svg width="999" height="782" viewBox="0 0 999 782" fill="none" xmlns="http://www.w3.org/2000/svg">
<path d="M-154 616.169C-8.05066 641.418 116.712 655.191 196.749 595.51C276.786 535.83 283.848 489.921 410.965 492.217C538.082 494.512 622.827 545.011 679.324 464.672C735.82 384.333 709.926 290.221 825.273 248.904C940.62 207.586 839.397 62.9759 985.346 1" stroke="black" stroke-opacity="0.08"/>
<path d="M-154 667.815C-8.05066 693.065 116.712 706.837 196.749 647.157C276.786 587.476 283.848 541.568 410.965 543.864C538.082 546.159 622.827 596.658 679.324 516.319C735.82 435.979 709.926 341.868 825.273 300.551C940.62 259.233 839.397 114.623 985.346 52.6467" stroke="black" stroke-opacity="0.08"/>
<path d="M-142.23 716.019C3.71948 741.268 128.483 755.041 208.519 695.36C288.556 635.68 295.618 589.772 422.735 592.067C549.852 594.362 634.597 644.861 691.094 564.522C747.59 484.183 721.696 390.071 837.043 348.754C952.39 307.437 851.167 162.826 997.117 100.85" stroke="black" stroke-opacity="0.08"/>
<path d="M-141.053 759.632C4.89648 784.881 129.66 798.653 209.696 738.973C289.733 679.292 296.795 633.384 423.912 635.68C551.029 637.975 635.774 688.474 692.271 608.135C748.767 527.796 722.873 433.684 838.22 392.367C953.567 351.049 852.344 206.439 998.294 144.463" stroke="black" stroke-opacity="0.08"/>
</svg>
